<mxfile host="app.diagrams.net" agent="Mozilla/5.0 (Windows NT 10.0; Win64; x64) AppleWebKit/537.36 (KHTML, like Gecko) Chrome/139.0.0.0 Safari/537.36" version="28.2.3">
  <diagram name="Página-1" id="sIRy0Af3gJCsxvbdjIeV">
    <mxGraphModel dx="1042" dy="1731" grid="1" gridSize="10" guides="1" tooltips="1" connect="1" arrows="1" fold="1" page="1" pageScale="1" pageWidth="827" pageHeight="1169" math="0" shadow="0">
      <root>
        <mxCell id="0" />
        <mxCell id="1" parent="0" />
        <mxCell id="0TjJ9HCO6MqigcVBuKSG-15" style="edgeStyle=orthogonalEdgeStyle;rounded=0;orthogonalLoop=1;jettySize=auto;html=1;exitX=0.5;exitY=1;exitDx=0;exitDy=0;" edge="1" parent="1" source="0TjJ9HCO6MqigcVBuKSG-11" target="0TjJ9HCO6MqigcVBuKSG-4">
          <mxGeometry relative="1" as="geometry" />
        </mxCell>
        <mxCell id="0TjJ9HCO6MqigcVBuKSG-11" value="&lt;h1&gt;Host (Instância Amazon EC2 - AWS)&lt;/h1&gt;" style="rounded=0;whiteSpace=wrap;html=1;verticalAlign=top;fillColor=#f5f5f5;fontColor=#333333;strokeColor=#666666;" vertex="1" parent="1">
          <mxGeometry x="100" y="-20" width="680" height="410" as="geometry" />
        </mxCell>
        <mxCell id="0TjJ9HCO6MqigcVBuKSG-4" value="&lt;h1&gt;Rede Docker&lt;/h1&gt;" style="rounded=0;whiteSpace=wrap;html=1;verticalAlign=top;" vertex="1" parent="1">
          <mxGeometry x="145" y="40" width="590" height="290" as="geometry" />
        </mxCell>
        <mxCell id="0TjJ9HCO6MqigcVBuKSG-5" style="edgeStyle=orthogonalEdgeStyle;rounded=0;orthogonalLoop=1;jettySize=auto;html=1;" edge="1" parent="1" source="0TjJ9HCO6MqigcVBuKSG-1" target="0TjJ9HCO6MqigcVBuKSG-2">
          <mxGeometry relative="1" as="geometry" />
        </mxCell>
        <mxCell id="0TjJ9HCO6MqigcVBuKSG-6" value="HTTP 8080" style="edgeLabel;html=1;align=center;verticalAlign=middle;resizable=0;points=[];" vertex="1" connectable="0" parent="0TjJ9HCO6MqigcVBuKSG-5">
          <mxGeometry x="0.0139" relative="1" as="geometry">
            <mxPoint as="offset" />
          </mxGeometry>
        </mxCell>
        <mxCell id="0TjJ9HCO6MqigcVBuKSG-34" style="edgeStyle=orthogonalEdgeStyle;rounded=0;orthogonalLoop=1;jettySize=auto;html=1;dashed=1;" edge="1" parent="1" source="0TjJ9HCO6MqigcVBuKSG-1" target="0TjJ9HCO6MqigcVBuKSG-9">
          <mxGeometry relative="1" as="geometry" />
        </mxCell>
        <mxCell id="0TjJ9HCO6MqigcVBuKSG-40" value="Logs" style="edgeLabel;html=1;align=center;verticalAlign=middle;resizable=0;points=[];" vertex="1" connectable="0" parent="0TjJ9HCO6MqigcVBuKSG-34">
          <mxGeometry x="-0.2933" y="-1" relative="1" as="geometry">
            <mxPoint as="offset" />
          </mxGeometry>
        </mxCell>
        <mxCell id="0TjJ9HCO6MqigcVBuKSG-1" value="&lt;b&gt;Máquina de Ataque&lt;/b&gt;&lt;br&gt;Kali Linux" style="rounded=0;whiteSpace=wrap;html=1;fillColor=#f8cecc;strokeColor=#b85450;" vertex="1" parent="1">
          <mxGeometry x="160" y="100" width="120" height="60" as="geometry" />
        </mxCell>
        <mxCell id="0TjJ9HCO6MqigcVBuKSG-7" style="edgeStyle=orthogonalEdgeStyle;rounded=0;orthogonalLoop=1;jettySize=auto;html=1;" edge="1" parent="1" source="0TjJ9HCO6MqigcVBuKSG-2" target="0TjJ9HCO6MqigcVBuKSG-3">
          <mxGeometry relative="1" as="geometry" />
        </mxCell>
        <mxCell id="0TjJ9HCO6MqigcVBuKSG-21" value="" style="edgeStyle=orthogonalEdgeStyle;rounded=0;orthogonalLoop=1;jettySize=auto;html=1;entryX=0.488;entryY=1.005;entryDx=0;entryDy=0;entryPerimeter=0;" edge="1" parent="1" source="0TjJ9HCO6MqigcVBuKSG-2" target="0TjJ9HCO6MqigcVBuKSG-4">
          <mxGeometry relative="1" as="geometry">
            <mxPoint x="433.5" y="270" as="targetPoint" />
          </mxGeometry>
        </mxCell>
        <mxCell id="0TjJ9HCO6MqigcVBuKSG-22" value="HTTP 8080" style="edgeLabel;html=1;align=center;verticalAlign=middle;resizable=0;points=[];" vertex="1" connectable="0" parent="0TjJ9HCO6MqigcVBuKSG-21">
          <mxGeometry x="-0.1261" y="3" relative="1" as="geometry">
            <mxPoint as="offset" />
          </mxGeometry>
        </mxCell>
        <mxCell id="0TjJ9HCO6MqigcVBuKSG-36" style="edgeStyle=orthogonalEdgeStyle;rounded=0;orthogonalLoop=1;jettySize=auto;html=1;entryX=1;entryY=0.5;entryDx=0;entryDy=0;dashed=1;" edge="1" parent="1" source="0TjJ9HCO6MqigcVBuKSG-2" target="0TjJ9HCO6MqigcVBuKSG-9">
          <mxGeometry relative="1" as="geometry">
            <Array as="points">
              <mxPoint x="327" y="150" />
              <mxPoint x="327" y="250" />
            </Array>
          </mxGeometry>
        </mxCell>
        <mxCell id="0TjJ9HCO6MqigcVBuKSG-39" value="Logs" style="edgeLabel;html=1;align=center;verticalAlign=middle;resizable=0;points=[];" vertex="1" connectable="0" parent="0TjJ9HCO6MqigcVBuKSG-36">
          <mxGeometry x="-0.0315" relative="1" as="geometry">
            <mxPoint as="offset" />
          </mxGeometry>
        </mxCell>
        <mxCell id="0TjJ9HCO6MqigcVBuKSG-2" value="&lt;b&gt;WAF&lt;/b&gt;&lt;br&gt;OWASP ModSecurity CRS" style="rounded=0;whiteSpace=wrap;html=1;fillColor=#dae8fc;strokeColor=#6c8ebf;" vertex="1" parent="1">
          <mxGeometry x="373.5" y="100" width="120" height="60" as="geometry" />
        </mxCell>
        <mxCell id="0TjJ9HCO6MqigcVBuKSG-37" style="edgeStyle=orthogonalEdgeStyle;rounded=0;orthogonalLoop=1;jettySize=auto;html=1;dashed=1;" edge="1" parent="1" source="0TjJ9HCO6MqigcVBuKSG-3" target="0TjJ9HCO6MqigcVBuKSG-9">
          <mxGeometry relative="1" as="geometry">
            <Array as="points">
              <mxPoint x="645" y="270" />
            </Array>
          </mxGeometry>
        </mxCell>
        <mxCell id="0TjJ9HCO6MqigcVBuKSG-38" value="Logs" style="edgeLabel;html=1;align=center;verticalAlign=middle;resizable=0;points=[];" vertex="1" connectable="0" parent="0TjJ9HCO6MqigcVBuKSG-37">
          <mxGeometry x="-0.3238" y="1" relative="1" as="geometry">
            <mxPoint as="offset" />
          </mxGeometry>
        </mxCell>
        <mxCell id="0TjJ9HCO6MqigcVBuKSG-3" value="&lt;b&gt;Aplicação Vulnerável&lt;br&gt;&lt;/b&gt;DVWA" style="rounded=0;whiteSpace=wrap;html=1;fillColor=#d5e8d4;strokeColor=#82b366;" vertex="1" parent="1">
          <mxGeometry x="580" y="100" width="130" height="60" as="geometry" />
        </mxCell>
        <mxCell id="0TjJ9HCO6MqigcVBuKSG-9" value="&lt;b&gt;Monitoramento&lt;br&gt;&lt;/b&gt;Dozzle" style="rounded=0;whiteSpace=wrap;html=1;fillColor=#fff2cc;strokeColor=#d6b656;" vertex="1" parent="1">
          <mxGeometry x="160" y="220" width="120" height="60" as="geometry" />
        </mxCell>
        <mxCell id="0TjJ9HCO6MqigcVBuKSG-13" style="edgeStyle=orthogonalEdgeStyle;rounded=0;orthogonalLoop=1;jettySize=auto;html=1;entryX=0.5;entryY=1;entryDx=0;entryDy=0;" edge="1" parent="1" source="0TjJ9HCO6MqigcVBuKSG-12">
          <mxGeometry relative="1" as="geometry">
            <mxPoint x="433.5" y="390" as="targetPoint" />
          </mxGeometry>
        </mxCell>
        <mxCell id="0TjJ9HCO6MqigcVBuKSG-14" value="HTTP 8080" style="edgeLabel;html=1;align=center;verticalAlign=middle;resizable=0;points=[];" vertex="1" connectable="0" parent="0TjJ9HCO6MqigcVBuKSG-13">
          <mxGeometry x="-0.035" relative="1" as="geometry">
            <mxPoint as="offset" />
          </mxGeometry>
        </mxCell>
        <mxCell id="0TjJ9HCO6MqigcVBuKSG-12" value="&lt;b&gt;Máquina Física&lt;br&gt;&lt;/b&gt;Navegador Web (Interface Gráfica)" style="rounded=0;whiteSpace=wrap;html=1;fillColor=#ffe6cc;strokeColor=#d79b00;" vertex="1" parent="1">
          <mxGeometry x="373.5" y="470" width="120" height="60" as="geometry" />
        </mxCell>
        <mxCell id="0TjJ9HCO6MqigcVBuKSG-23" value="" style="endArrow=none;html=1;rounded=0;" edge="1" parent="1">
          <mxGeometry width="50" height="50" relative="1" as="geometry">
            <mxPoint x="433" y="390" as="sourcePoint" />
            <mxPoint x="433.2" y="330" as="targetPoint" />
          </mxGeometry>
        </mxCell>
        <mxCell id="0TjJ9HCO6MqigcVBuKSG-26" value="Port Fowarding 8080:8080" style="edgeLabel;html=1;align=center;verticalAlign=middle;resizable=0;points=[];" vertex="1" connectable="0" parent="0TjJ9HCO6MqigcVBuKSG-23">
          <mxGeometry x="0.0199" y="1" relative="1" as="geometry">
            <mxPoint as="offset" />
          </mxGeometry>
        </mxCell>
        <mxCell id="0TjJ9HCO6MqigcVBuKSG-24" style="edgeStyle=orthogonalEdgeStyle;rounded=0;orthogonalLoop=1;jettySize=auto;html=1;entryX=0.186;entryY=1.004;entryDx=0;entryDy=0;entryPerimeter=0;" edge="1" parent="1">
          <mxGeometry relative="1" as="geometry">
            <mxPoint x="360" y="500" as="sourcePoint" />
            <mxPoint x="213.48000000000002" y="391.52" as="targetPoint" />
            <Array as="points">
              <mxPoint x="214" y="500" />
            </Array>
          </mxGeometry>
        </mxCell>
        <mxCell id="0TjJ9HCO6MqigcVBuKSG-25" value="HTTP 9999" style="edgeLabel;html=1;align=center;verticalAlign=middle;resizable=0;points=[];" vertex="1" connectable="0" parent="0TjJ9HCO6MqigcVBuKSG-24">
          <mxGeometry x="-0.035" relative="1" as="geometry">
            <mxPoint as="offset" />
          </mxGeometry>
        </mxCell>
        <mxCell id="0TjJ9HCO6MqigcVBuKSG-27" value="" style="endArrow=none;html=1;rounded=0;" edge="1" parent="1">
          <mxGeometry width="50" height="50" relative="1" as="geometry">
            <mxPoint x="214" y="390" as="sourcePoint" />
            <mxPoint x="214.2" y="330" as="targetPoint" />
          </mxGeometry>
        </mxCell>
        <mxCell id="0TjJ9HCO6MqigcVBuKSG-28" value="Port Fowarding 9999:8080" style="edgeLabel;html=1;align=center;verticalAlign=middle;resizable=0;points=[];" vertex="1" connectable="0" parent="0TjJ9HCO6MqigcVBuKSG-27">
          <mxGeometry x="0.0199" y="1" relative="1" as="geometry">
            <mxPoint as="offset" />
          </mxGeometry>
        </mxCell>
        <mxCell id="0TjJ9HCO6MqigcVBuKSG-31" value="" style="edgeStyle=orthogonalEdgeStyle;rounded=0;orthogonalLoop=1;jettySize=auto;html=1;" edge="1" parent="1">
          <mxGeometry relative="1" as="geometry">
            <mxPoint x="214.25" y="280" as="sourcePoint" />
            <mxPoint x="214" y="330" as="targetPoint" />
          </mxGeometry>
        </mxCell>
        <mxCell id="0TjJ9HCO6MqigcVBuKSG-32" value="HTTP 8080" style="edgeLabel;html=1;align=center;verticalAlign=middle;resizable=0;points=[];" vertex="1" connectable="0" parent="0TjJ9HCO6MqigcVBuKSG-31">
          <mxGeometry x="-0.1261" y="3" relative="1" as="geometry">
            <mxPoint as="offset" />
          </mxGeometry>
        </mxCell>
      </root>
    </mxGraphModel>
  </diagram>
</mxfile>
